<svg width="24" height="24" viewBox="0 0 24 24" stroke-width="1.5" fill="none" xmlns="http://www.w3.org/2000/svg">
<path d="M4 6C4 3.79086 7.58172 2 12 2C16.4183 2 20 3.79086 20 6C20 8.20914 16.4183 10 12 10C7.58172 10 4 8.20914 4 6Z" stroke="white" stroke-linecap="round" stroke-linejoin="round"/>
<path d="M4 6V12C4 14.2091 7.58172 16 12 16C16.4183 16 20 14.2091 20 12V6" stroke="white" stroke-linecap="round" stroke-linejoin="round"/>
<path d="M4 12V18C4 20.2091 7.58172 22 12 22C16.4183 22 20 20.2091 20 18V12" stroke="white" stroke-linecap="round" stroke-linejoin="round"/>
<path d="M9 18L11 20L15 16" stroke="white" stroke-linecap="round" stroke-linejoin="round"/>
</svg>
